<?xml version="1.0" encoding="utf-8"?>
<!-- Generator: Adobe Illustrator 24.1.2, SVG Export Plug-In . SVG Version: 6.00 Build 0)  -->
<svg version="1.1" id="Слой_1" xmlns="http://www.w3.org/2000/svg" xmlns:xlink="http://www.w3.org/1999/xlink" x="0px" y="0px"
	 viewBox="0 0 2000 2000" style="enable-background:new 0 0 2000 2000;" xml:space="preserve">
<style type="text/css">
	.st0{fill:#FFEC00;}
	.st1{fill:#151ECC;}
	.st2{fill:#FFF652;}
	.st3{fill:#FFE94D;}
	.st4{fill:#E6E6E6;}
</style>
<path class="st0" d="M1878,297.32v1466.41c0,40.37-16.54,76.89-43.21,103.11c-21.23,20.92-48.88,35.31-79.73,39.95h-0.05
	c-7.08,1.09-14.33,1.64-21.71,1.64H266.89c-7.68,0-15.22-0.6-22.57-1.75h-0.03c-31.34-4.92-59.33-19.88-80.59-41.53
	c-0.11-0.1-0.21-0.21-0.31-0.32c-25.3-25.87-40.96-61.19-41.19-100.19c-0.02-0.31-0.02-0.6-0.02-0.91V297.32
	c0-1.98,0.03-3.96,0.13-5.92c1.49-37.44,17.22-71.19,41.92-96.03c26.19-26.4,62.51-42.74,102.65-42.74H1733.3
	C1813.22,152.62,1878,217.4,1878,297.32z"/>
<polygon class="st1" points="121.69,1906.66 122.19,1906.15 122.19,1906.66 "/>
<path class="st2" d="M1834.79,1866.83c-21.23,20.92-48.88,35.31-79.73,39.95h-0.05l-1510.69-0.11h-0.03
	c-31.34-4.92-59.33-19.88-80.59-41.53c-0.11-0.1-0.21-0.21-0.31-0.32l833.46-835.92l1.56,1.56L1834.79,1866.83z"/>
<path class="st3" d="M1000.1,1028.75l-1.69,1.7L163.7,1865.15c-0.11-0.1-0.21-0.21-0.31-0.32c-25.3-25.87-40.96-61.19-41.19-100.19
	l0.11-1473.24c1.49-37.44,17.22-71.19,41.92-96.03L1000.1,1028.75z"/>
<path class="st4" d="M1178.97,548.57H827.71c-32.95,0-59.67-26.71-59.67-59.67V152.24c0-32.95,26.71-59.67,59.67-59.67h351.26
	c32.95,0,59.67,26.71,59.67,59.67V488.9C1238.64,521.85,1211.93,548.57,1178.97,548.57z"/>
</svg>
